<svg xmlns="http://www.w3.org/2000/svg" xmlns:xlink="http://www.w3.org/1999/xlink" width="55" height="55" viewBox="0 0 55 55" fill="none"><g opacity="1"  transform="translate(0 0)  rotate(0)"><mask id="bg-mask-0" fill="white"><use transform="translate(0 0)  rotate(0)" xlink:href="#path_0"></use></mask><g mask="url(#bg-mask-0)" ><g opacity="1"  transform="translate(6 4)  rotate(0)"><g opacity="1"  transform="translate(0 0)  rotate(0)"><path id="路径 1" fill-rule="evenodd" style="fill:#1E75FE" opacity="1" d="M31.51 30.5C31.42 30.97 31.4 31.44 31.45 31.94C31.68 34.85 34.01 37.24 36.99 37.57C40.78 37.99 43.96 35.1 43.96 31.5C43.99 29.42 42.94 27.62 41.37 26.51C40.21 25.68 39.52 24.37 39.52 22.96L39.52 22.9C39.52 21.52 40.24 20.21 41.4 19.41C43.08 18.22 44.13 16.22 43.99 14C43.76 11.09 41.43 8.71 38.44 8.37C34.66 7.96 31.48 10.84 31.48 14.45C31.48 16.5 32.53 18.33 34.12 19.44C35.29 20.24 35.94 21.57 35.94 22.96C35.94 24.37 35.23 25.68 34.07 26.51C33.98 26.56 33.87 26.59 33.75 26.56C29.66 25.18 23.1 21.38 24.86 11.39C24.91 11.37 24.97 11.34 25.03 11.31C27.56 9.79 28.67 6.65 27.59 3.94C26.19 0.47 22.1 -0.97 18.83 0.69C16.96 1.63 15.79 3.38 15.53 5.29C15.31 6.9 14.11 8.26 12.49 8.79C11.36 9.15 10.1 9.01 9.02 8.51C7.18 7.62 4.9 7.62 2.97 8.79C0.44 10.31 -0.67 13.45 0.41 16.16C1.78 19.63 5.87 21.07 9.14 19.38C11.01 18.44 12.18 16.66 12.44 14.78C12.63 13.39 13.52 12.2 14.8 11.59C16.1 10.95 17.64 10.95 18.95 11.59C19.2 11.73 19.49 11.84 19.77 11.92C20.05 16.28 19.12 23.32 10.99 26.04C9.99 26.37 8.91 26.45 7.89 26.23C5.53 25.7 3 26.54 1.49 28.48C-0.81 31.44 0.1 35.58 3.28 37.43C5.1 38.49 7.23 38.54 9.02 37.77C10.56 37.1 12.35 37.38 13.66 38.46C14.57 39.21 15.11 40.32 15.22 41.48C15.42 43.48 16.64 45.36 18.66 46.36C21.33 47.67 24.63 46.92 26.45 44.59C28.75 41.62 27.84 37.49 24.66 35.63C22.75 34.52 20.51 34.52 18.69 35.41C17.47 35.99 15.99 35.83 14.88 35.02C13.69 34.13 12.86 32.86 12.66 31.42C12.66 31.42 12.86 30.06 13.43 29.67C16.3 27.76 23.72 24.1 31.42 30.45C31.45 30.47 31.48 30.5 31.51 30.5Z"></path></g></g></g></g><defs><rect id="path_0" x="0" y="0" width="55" height="55" /></defs></svg>